Coordinates
version=1
nRows=16
nColumns=36
inDegrees=yes

Units are S.I. units (second, meters, Newtons, ...)
If the header above contains a line with 'inDegrees', this indicates whether rotational values are in degrees (yes) or radians (no).

endheader
time	pelvis_tilt	pelvis_list	pelvis_rotation	pelvis_tx	pelvis_ty	pelvis_tz	hip_flexion_r	hip_adduction_r	hip_rotation_r	knee_angle_r	knee_angle_r_beta	ankle_angle_r	subtalar_angle_r	mtp_angle_r	hip_flexion_l	hip_adduction_l	hip_rotation_l	knee_angle_l	knee_angle_l_beta	ankle_angle_l	subtalar_angle_l	mtp_angle_l	lumbar_extension	lumbar_bending	lumbar_rotation	arm_flex_r	arm_add_r	arm_rot_r	elbow_flex_r	pro_sup_r	arm_flex_l	arm_add_l	arm_rot_l	elbow_flex_l	pro_sup_l
      7.08474580	     -0.48422498	     -0.97141689	      0.46277016	      0.35334861	      0.94340680	      0.01132410	     -2.55193906	     -3.42873149	      5.74721916	      0.69780542	      0.01217900	      6.62927932	     -5.20643826	     -7.49999987	     -3.49757280	     -6.32477055	     -3.89938734	      0.24836445	      0.00433478	      1.60934646	     -8.86937044	     -7.49999987	     -7.27933687	      1.09047638	     -2.08991392	      0.00855009	     -6.89085400	      4.34921150	     26.66857869	     69.19414025	      4.21718229	     -7.33402360	      1.37737835	     22.74067906	     64.62734052
      7.10169490	     -0.58671977	     -0.99456331	      0.17914251	      0.35345522	      0.94965949	      0.01085062	     -2.37090033	     -3.40897229	      5.86034473	      0.78169090	      0.01364308	      6.47303285	     -5.30340897	     -7.49999987	     -3.53076231	     -6.36584344	     -4.27747759	      0.24642865	      0.00430099	      1.61248003	     -8.63676290	     -7.49999987	     -7.05640853	      1.15105878	     -2.34429573	      0.05318619	     -7.04412965	      4.00942882	     26.57533392	     69.04395271	      4.02687099	     -7.23867876	      1.52122020	     22.73512278	     64.53749009
      7.11864410	     -0.73824986	     -1.05689064	     -0.11503259	      0.35396175	      0.94361825	      0.01155253	     -2.18302923	     -3.34523142	      6.29151123	      0.81663946	      0.01425305	      6.15479408	     -5.76418206	     -7.49999987	     -3.48589162	     -6.43120453	     -4.64296369	      0.24716737	      0.00431388	      1.84553227	     -8.44447452	     -7.49999987	     -6.72774271	      1.20167848	     -2.68525784	     -0.06301547	     -7.27013338	      3.35215792	     26.68609941	     68.22778556	      3.79733007	     -7.16482313	      1.76109810	     23.03427319	     64.16635813
      7.13559320	     -0.81270135	     -1.10557364	     -0.30696248	      0.36323378	      0.94729659	      0.01969621	     -2.23716087	     -3.14693500	      6.48967652	      0.83314597	      0.01454114	      5.96536841	     -5.86321766	     -7.49999987	     -3.61626468	     -6.60635121	     -4.86327490	      0.24474153	      0.00427155	      1.77230469	     -8.33597301	     -7.49999987	     -6.22625524	      1.14713653	     -3.15109230	     -0.00684146	     -7.57248263	      2.37925792	     26.52603490	     68.05497225	      3.46714143	     -7.14377791	      2.13131646	     22.89643891	     64.25544812
      7.15254240	     -0.91061785	     -1.24745687	     -0.60095783	      0.36355580	      0.94745939	      0.02007013	     -2.27282003	     -2.86506865	      6.77873147	      0.84460683	      0.01474117	      5.79511616	     -6.05115921	     -7.49999987	     -3.74413900	     -6.85411451	     -5.14680347	      0.24436629	      0.00426500	      1.79997311	     -8.50586174	     -7.49999987	     -5.73952967	      1.26884794	     -3.35672589	      0.00804275	     -8.00613921	      1.10075685	     26.60125319	     67.81585017	      3.15313233	     -7.13554609	      2.70472197	     22.99212055	     64.41009308
      7.16949150	     -1.01156277	     -1.30483736	     -0.92377857	      0.36329459	      0.95005266	      0.01994510	     -2.29604645	     -2.68589153	      6.95444979	      0.83662442	      0.01460185	      5.62229462	     -6.04784970	     -7.49999987	     -3.84753603	     -7.00080965	     -5.62045781	      0.24126579	      0.00421088	      1.79839819	     -8.30490839	     -7.49999987	     -5.30776011	      1.35697935	     -3.65964518	      0.08837438	     -8.48620188	     -0.32227728	     26.85040522	     67.58028961	      2.80945554	     -7.10322948	      3.16728064	     23.06882397	     64.56348981
      7.18644070	     -1.38028322	     -1.34127768	     -1.27537072	      0.35515491	      0.94622777	      0.02094244	     -1.83332273	     -2.54904073	      7.32250882	      0.87306013	      0.01523777	      5.44813530	     -6.45866915	     -7.49999987	     -3.52053858	     -7.09347054	     -5.76197439	      0.24094466	      0.00420528	      1.74602724	     -8.77885595	     -7.49999987	     -4.74153017	      1.43159204	     -3.25854721	     -0.44900481	     -8.59716589	     -6.54292926	     27.68599559	     74.18243671	      3.41253252	     -7.18884653	      5.18185097	     22.24090819	     68.68270024
      7.20338980	     -1.41669431	     -1.35494000	     -1.55730656	      0.35513242	      0.94959672	      0.02040015	     -1.70702035	     -2.47317756	      7.27084284	      0.89281156	      0.01558250	      5.61803257	     -5.87519506	     -7.49999987	     -3.50439017	     -7.14719485	     -6.04144420	      0.23808039	      0.00415529	      1.59563481	     -8.87178486	     -7.49999987	     -4.68393742	      1.47997679	     -3.89431079	     -0.17975522	     -9.26405719	     -7.77846166	     28.30944880	     73.14137737	      3.16829243	     -7.21085291	      5.12242839	     22.69793873	     68.23743072
      7.22033900	     -1.62257900	     -1.36374886	     -1.81859623	      0.35563363	      0.94662048	      0.02086884	     -1.36641418	     -2.42271194	      7.38305302	      0.92592184	      0.01616038	      5.58124110	     -5.78760245	     -7.49999987	     -3.29571653	     -7.16796766	     -6.15718310	      0.23998681	      0.00418856	      1.70954520	     -8.88306309	     -7.49999987	     -4.32016777	      1.44380013	     -4.36957273	      0.03832301	    -10.26108139	     -8.31174599	     28.70792104	     72.96122220	      3.15109090	     -7.12707482	      5.17875302	     22.85338958	     68.21711011
      7.23728810	     -1.94250311	     -1.42550459	     -2.07212259	      0.35997166	      0.94575786	      0.02560766	     -0.99472456	     -2.21982714	      7.96407708	      0.93467834	      0.01631321	      5.07936009	     -6.65001701	     -7.49999987	     -2.99308384	     -7.31449235	     -6.15501420	      0.25366625	      0.00442731	      1.23442077	     -9.62511105	     -7.49999987	     -3.73852566	      1.49990260	     -4.57756154	     -0.26661637	    -10.28322628	    -15.57455873	     30.28633358	     71.40128839	      3.22977767	     -7.00542503	      5.54754891	     22.23542845	     68.76609796
      7.25423730	     -2.01248398	     -1.48923967	     -2.41557304	      0.36050779	      0.94292837	      0.02627918	     -0.87663333	     -2.08208422	      8.07359969	      1.03323123	      0.01803329	      5.12934222	     -6.41542254	     -7.49999987	     -3.01333904	     -7.43819794	     -6.47953762	      0.26034680	      0.00454391	      1.29830493	     -9.70572584	     -7.49999987	     -3.50444814	      1.54587124	     -4.63337047	     -0.87518306	    -11.00362918	    -19.29299717	     32.51886382	     69.81668350	      3.36549051	     -6.95484812	      6.37853158	     21.74664861	     68.63797315
      7.27118640	     -2.15823663	     -1.53601726	     -2.71134073	      0.36520952	      0.94603029	      0.03075379	     -0.76163560	     -1.90340829	      8.03051927	      1.11750527	      0.01950415	      5.33393393	     -5.91587573	     -7.49999987	     -3.00239521	     -7.59444061	     -6.64243203	      0.27564970	      0.00481099	      1.15504073	     -9.83132397	     -7.49999987	     -3.03411192	      1.54671512	     -4.69439251	     -1.82895947	    -11.57707561	    -24.81159588	     35.07442970	     68.94909823	      3.45910830	     -6.97831378	      7.86417034	     21.14675732	     69.98619837
      7.28813560	     -2.35505429	     -1.57208403	     -3.00475478	      0.36559196	      0.94594334	      0.03161810	     -0.57354399	     -1.77063036	      8.04641001	      1.19177932	      0.02080047	      5.45366866	     -5.66359948	     -7.49999987	     -2.94242722	     -7.71676751	     -6.73135879	      0.29543962	      0.00515639	      0.90644596	    -10.41658304	     -7.49999987	     -2.56649969	      1.59687974	     -5.10465602	     -2.44644599	    -12.56230643	    -28.86002844	     37.71895749	     67.40285268	      3.31499542	     -6.83054877	      8.07962625	     21.06833710	     69.92934239
      7.30508470	     -2.65009932	     -1.57029136	     -3.40048069	      0.36203735	      0.94588357	      0.03632088	     -0.17306379	     -1.63041464	      8.14254758	      1.31972112	      0.02303348	      5.60137788	     -5.39863509	     -7.49999987	     -2.73838985	     -7.83757339	     -6.94535222	      0.31595016	      0.00551437	      0.83562495	    -10.66328709	     -7.49999987	     -2.17518920	      1.62834461	     -5.36862254	     -2.89166030	    -13.49735998	    -32.82351629	     40.22460500	     65.22164940	      3.65225119	     -6.72930438	      9.46810763	     20.80757741	     70.30397946
      7.32203390	     -3.00468659	     -1.58166311	     -3.72626953	      0.36720832	      0.94565103	      0.04141254	      0.20855845	     -1.42553247	      8.33004892	      1.36056092	      0.02374627	      5.72134189	     -5.08525648	     -7.49999987	     -2.50491207	     -8.03466553	     -7.17136768	      0.33707703	      0.00588310	      0.73199208	    -10.61824969	     -7.49999987	     -1.58960121	      1.62942218	     -6.56496636	     -2.82514644	    -14.75372695	    -35.01641740	     41.77922254	     64.52560033	      3.12075271	     -6.82948585	      9.81063211	     21.00256873	     70.46031791
      7.33898310	     -3.25452476	     -1.59971404	     -4.12810007	      0.36271908	      0.94532349	      0.03699121	      0.62317713	     -1.31222544	      8.38163062	      1.51178634	      0.02638565	      6.08853991	     -4.71488792	     -7.49999987	     -2.32222668	     -8.13618699	     -7.27787190	      0.35786148	      0.00624586	      0.72492937	    -10.87785732	     -7.49999987	     -1.41055465	      1.70367372	     -6.07706534	     -3.98160728	    -15.81478738	    -39.76192584	     45.00946238	     57.03694946	      3.86002012	     -6.73499011	     12.32999047	     20.78627921	     70.85265928
